<?xml version="1.0" encoding="UTF-8"?>
<svg width="101px" height="23px" viewBox="0 0 101 23" version="1.1" xmlns="http://www.w3.org/2000/svg" xmlns:xlink="http://www.w3.org/1999/xlink">
    <title>logo</title>
    <g id="Page-1" stroke="none" stroke-width="1" fill="none" fill-rule="evenodd">
        <g id="Main-Nav" transform="translate(-145.000000, -50.000000)" fill="#FFFFFF">
            <g id="logo" transform="translate(145.000000, 50.000000)">
                <path d="M15.9848275,4.56745747 C15.9550865,4.21010358 15.7839734,3.87925782 15.5085629,3.64756462 C15.2333561,3.41566906 14.8766669,3.30194715 14.5169221,3.33149057 L11.8310584,3.5516497 C11.0822351,3.6129624 10.5250992,4.26575042 10.5868221,5.00979926 L11.12318,11.4668562 L5.14094569,4.65183831 C4.85677581,4.32807488 4.43612291,4.15789673 4.00345135,4.19290365 L1.24873502,4.41872864 C0.499708035,4.48004134 -0.0572241877,5.13282936 0.00470243837,5.8768782 L1.26767968,21.0862725 C1.3261433,21.7924815 1.92137226,22.3268935 2.62212092,22.3268935 C2.65960282,22.3268935 2.69728844,22.3252747 2.73538146,22.3222394 L5.42124516,22.1022826 C5.78078626,22.0727392 6.11404929,21.902561 6.34729266,21.6291833 C6.58073975,21.3556032 6.69501882,21.0012846 6.66548145,20.6439307 L6.10671587,13.9149125 L12.26923,20.9852987 C12.5531962,21.3112881 12.9754787,21.4832874 13.4095762,21.447471 L16.0035685,21.2350013 C16.3631096,21.2056602 16.6963726,21.0352797 16.9298197,20.761902 C17.1630631,20.4885242 17.2775459,20.1342056 17.2478048,19.7768517 L15.9848275,4.56745747 Z" id="Fill-1"></path>
                <path d="M24.3158894,3.31450293 C24.2948691,2.94461744 24.133913,2.59858203 23.8686557,2.3525496 C23.6033985,2.10651716 23.2566622,1.98015357 22.9015178,2.00253917 L20.2577539,2.16697922 C19.5204388,2.21279648 18.9582937,2.87474088 19.0023364,3.64526591 L19.8996065,19.3957349 C19.9208271,19.7656204 20.081583,20.1116558 20.3468403,20.3576883 C20.5920781,20.5853101 20.9083849,20.71 21.2345011,20.71 C21.2609267,20.71 21.2875526,20.7093724 21.3139782,20.7076987 L23.9577421,20.5430494 C24.6950572,20.4972322 25.2570021,19.835497 25.2131596,19.0649719 L24.3158894,3.31450293 Z" id="Fill-4"></path>
                <path d="M46.3533245,1.36250411 C46.0849863,1.11942074 45.7267173,0.990163709 45.3599329,1.00058443 L41.4870969,1.11841874 C40.9265357,1.13565301 40.4316053,1.47673124 40.2332592,1.98293783 L37.4732379,9.02694478 L34.2758169,2.16690365 C34.0452786,1.67232017 33.5293712,1.36130171 32.9667331,1.37793479 L29.0936895,1.4959695 C28.3279284,1.51921573 27.7266596,2.13724467 27.7511672,2.87611391 L28.2450592,17.9823525 C28.25669,18.3370579 28.413913,18.6729257 28.6822513,18.9158087 C28.9397896,19.149273 29.279574,19.27853 29.6316122,19.27853 C29.6463583,19.27853 29.6608968,19.2783296 29.6756429,19.2779288 L32.4219566,19.1941622 C33.1877176,19.170916 33.7889864,18.552887 33.7646865,17.8140178 L33.6190943,13.3613637 L35.9010082,18.2593033 C36.1313388,18.7538867 36.6526462,19.064304 37.2100919,19.0482721 L38.3837604,19.0126012 C38.9445293,18.9955673 39.4396674,18.6540883 39.6378058,18.1476813 L41.6183583,13.0870182 L41.764989,17.5705336 C41.7766198,17.925239 41.9340505,18.2611068 42.2021811,18.5041902 C42.4703116,18.7470732 42.8275422,18.8773322 43.1955727,18.8661099 L45.9418863,18.7825437 C46.7076474,18.7592975 47.3089162,18.1412685 47.2846163,17.4023993 L46.7903089,2.29616067 C46.7788858,1.94145535 46.6214551,1.60538708 46.3533245,1.36250411" id="Fill-6"></path>
                <path d="M55.0776197,12.0082693 L58.0914899,12.1043113 C58.4450837,12.1154522 58.7240677,12.2852545 58.8770978,12.5814482 C59.0265177,12.8707268 59.0547972,13.2760242 59.0521899,13.5653028 C59.047978,14.0704839 58.9854022,14.4285286 58.8664679,14.6302169 C58.7180508,14.8814629 58.424225,15.0201476 58.0662189,15.00747 L55.0523487,14.911428 L55.0776197,12.0082693 Z M58.072509,8.00839631 L54.9389081,7.89666192 L54.9612244,5.00925927 L58.0946086,5.12192477 C58.410937,5.13309821 58.6568498,5.29325082 58.7868478,5.57305234 C58.9168458,5.85285385 58.9413287,6.29792914 58.9387288,6.62195885 C58.9348288,7.11684905 58.9304956,8.04145106 58.072509,8.00839631 L58.072509,8.00839631 Z M64.8215907,6.43285686 C64.8460029,4.98590699 64.3162573,3.65915039 63.3302061,2.69720153 C62.3040782,1.69599356 60.8692487,1.15240588 59.1807354,1.12442118 L51.6369458,1.00020133 C51.6294187,1 51.6218916,1 51.6143645,1 C51.2622179,1 50.9232946,1.13549426 50.6694073,1.37809543 C50.4106375,1.62613247 50.2617229,1.96577411 50.2556198,2.32232736 L50.000105,17.5039259 C49.9876955,18.2466277 50.5857954,18.8588685 51.3362684,18.8711496 L59.0869517,18.998792 C59.1331315,18.9995973 59.178701,19 59.2242705,19 C60.9009847,19 62.3327626,18.4886249 63.371707,17.5166096 C64.3953936,16.5592913 64.9733534,15.1872358 64.9991897,13.6531105 C65.0238054,12.191061 64.4204162,10.8091403 63.4504364,9.83954097 C64.2885901,8.96980068 64.7992128,7.76806926 64.8215907,6.43285686 L64.8215907,6.43285686 Z" id="Fill-8" transform="translate(57.499915, 10.000000) rotate(1.000000) translate(-57.499915, -10.000000) "></path>
                <path d="M83.5151449,3.16579941 C83.2686151,2.89729486 82.9231819,2.73554022 82.555053,2.71598299 L79.7807601,2.5701186 C79.0132695,2.52998552 78.3584248,3.10529421 78.3171977,3.85580314 L77.8112286,13.0562603 C77.778122,13.6613123 77.620293,14.4929023 77.0578969,15.0193179 C76.607522,15.4412245 75.9335212,15.6312964 75.0571328,15.5852554 C74.1680431,15.5383995 73.5119491,15.2774326 73.107382,14.8092813 C72.6051609,14.2282684 72.5391559,13.3854738 72.5724707,12.7804218 L73.0784398,3.57996463 C73.0984287,3.21958181 72.9709994,2.86632924 72.7244696,2.59762096 C72.4779399,2.32932013 72.1327149,2.16736177 71.7641695,2.14800826 L68.990293,2.00194015 C68.222386,1.96221452 67.5681659,2.53731949 67.5267306,3.28782842 L67.0157643,12.5801639 C66.8906255,14.8563409 67.5084075,16.8083975 68.8024806,18.2258897 C70.1542301,19.7067391 72.2199581,20.5605347 74.7760389,20.6949907 C75.0111167,20.7074177 75.2422383,20.7137331 75.4687792,20.7137331 C77.7366867,20.7137331 79.5837861,20.0950318 80.96656,18.8706673 C82.4059691,17.5963912 83.2332181,15.7107477 83.3593981,13.417458 L83.8689068,4.14793935 C83.8888957,3.78755654 83.7616747,3.43430396 83.5151449,3.16579941" id="Fill-10"></path>
                <path d="M92.9549777,8.52424496 C94.3309069,8.64170036 95.5293695,9.23583759 96.3288904,10.196893 C96.5827066,10.5020692 96.9536057,10.6814745 97.346816,10.6891663 C97.7447343,10.6974817 98.1174756,10.5322126 98.3827544,10.2372228 L100.096832,8.33132707 C100.565778,7.80974193 100.57458,7.01333196 100.117097,6.48135254 C98.5469162,4.65570064 96.2990056,3.56949805 93.6161278,3.34040804 C89.5786087,2.99531784 86.4421369,5.24838267 86.1567984,8.69699795 C85.9948882,10.6529942 86.684081,12.2404091 88.2051357,13.415171 C89.3808777,14.3230077 90.8523973,14.8302487 92.1517723,15.2774108 L92.1814525,15.2880129 C92.8733062,15.5345653 93.5270875,15.7676052 94.0023787,16.0191468 C94.4735761,16.2684017 94.5484929,16.4222371 94.5486975,16.4222371 C94.5495163,16.4255633 94.5507444,16.4403232 94.5486975,16.4665168 C94.5372349,16.6049686 94.4598619,16.7211767 94.3124848,16.8220012 C94.1292868,16.9471484 93.6830616,17.1456792 92.7588842,17.0666827 C90.7709305,16.8968401 89.5679648,15.7100208 89.0279913,15.0177616 C88.7743799,14.6926284 88.3911993,14.4997105 87.9830466,14.4916029 C87.9740402,14.4913951 87.9650338,14.4913951 87.9562321,14.4913951 C87.5576998,14.4913951 87.1788178,14.66789 86.9186562,14.9755608 L85.2451071,16.9556717 C84.8191463,17.4597945 84.8042039,18.1996595 85.2099003,18.7210368 C86.81365,20.7822231 89.2351381,22.0062539 92.2127701,22.2604981 C92.5658611,22.2904336 92.9089223,22.3056093 93.2419537,22.3056093 C95.0821209,22.3054014 96.6130008,21.8459741 97.8018429,20.9341876 C99.0997851,19.9390389 99.8945981,18.4266707 100.039519,16.6758576 C100.204295,14.6838972 99.5085519,14.0613496 97.971736,12.853326 C96.7712265,11.9095251 95.2814894,11.3858611 93.9653298,10.9233155 L93.9438373,10.9158316 C93.1975359,10.6547272 91.9025448,10.198181 91.603492,9.88635254 C91.620686,9.80195096 91.1771004,9.10028076 91.8428944,8.69325601 C91.9544507,8.62340642 92.2858446,8.46749218 92.9549777,8.52424496 Z" id="Fill-12"></path>
            </g>
        </g>
    </g>
</svg>